<svg xmlns="http://www.w3.org/2000/svg" viewBox="0 0 1440 960">
  <path fill="#fff" d="M34 170c48-54 116-38 172-82 28-22 74-34 116-16 42 18 90 38 146 18 58-20 96-76 164-74 58 2 112 46 170 42 60-4 112-58 180-60 66-2 124 42 184 52 58 10 106-22 168-24 60-2 112 22 154 62l20 24v510c-34 28-76 38-122 26-38-10-76-40-120-36-42 4-70 44-112 56-52 16-106-10-160-4-56 6-98 48-154 58-72 14-144-18-216-30-58-10-118 6-176-8-52-12-90-54-142-60-54-6-98 28-150 34-74 8-152-26-220-10-36 8-66 30-104 32-42 2-78-22-116-18l-22 4V170z"/>
  <path d="M154 144c34-18 78-14 108-40M1114 146c32-24 76-30 114-8M122 760c26 18 54 44 96 42M1222 792c18 10 40 36 78 26M664 120c42-34 102-40 142-8M564 850c30 20 70 28 104 10" fill="none" stroke="#fff" stroke-linecap="round" stroke-width="30"/>
</svg>
